<svg width="16" height="21" fill="none" xmlns="http://www.w3.org/2000/svg"><path d="M5 8.24V4.5C5 3.12 6.12 2 7.5 2S10 3.12 10 4.5v3.74c1.21-.81 2-2.18 2-3.74C12 2.01 9.99 0 7.5 0S3 2.01 3 4.5c0 1.56.79 2.93 2 3.74Zm9.84 4.63-4.54-2.26c-.17-.07-.35-.11-.54-.11H9v-6C9 3.67 8.33 3 7.5 3S6 3.67 6 4.5v10.74l-3.43-.72c-.08-.01-.15-.03-.24-.03-.31 0-.59.13-.79.33l-.79.8 4.94 4.94c.27.27.65.44 1.06.44h6.79c.75 0 1.33-.55 1.44-1.28l.75-5.27c.01-.07.02-.14.02-.2 0-.62-.38-1.16-.91-1.38Z" fill="#000"/></svg>